<?xml version="1.0" encoding="UTF-8"?>
<svg id="_레이어_1" data-name="레이어 1" xmlns="http://www.w3.org/2000/svg" viewBox="0 0 65.39 65.39">
  <defs>
    <style>
      .cls-1 {
        fill: #6546ff;
      }

      .cls-1, .cls-2 {
        stroke-width: 0px;
      }

      .cls-2 {
        fill: #bfbfff;
      }
    </style>
  </defs>
  <path class="cls-1" d="M37.44,27.95v-9.23c0-5.09,4.14-9.23,9.23-9.23,1.32,0,2.57.31,3.74.83l6.94-6.94c-3.11-2.18-6.8-3.38-10.68-3.38-10.32,0-18.72,8.4-18.72,18.72v9.23h-5.94v9.49h5.94v9.23c0,5.09-4.14,9.23-9.23,9.23-1.32,0-2.57-.31-3.74-.83l-6.94,6.94c3.11,2.18,6.8,3.38,10.68,3.38,10.32,0,18.72-8.4,18.72-18.72v-9.23h5.94v-9.49h-5.94Z"/>
  <path class="cls-2" d="M9.49,46.67c0-2.54,1.04-4.85,2.71-6.52,1.67-1.67,3.98-2.71,6.52-2.71v-9.49C8.4,27.95,0,36.35,0,46.67c0,3.75,1.1,7.33,3.13,10.38.68,1.02,1.46,1.97,2.35,2.86l6.71-6.71c-1.74-1.74-2.7-4.06-2.7-6.53Z"/>
  <path class="cls-2" d="M65.39,18.72c0-5-1.95-9.7-5.48-13.23l-3.36,3.35-3.35,3.35c1.74,1.74,2.7,4.06,2.7,6.53,0,5.09-4.14,9.23-9.23,9.23v9.49c2.58,0,5.04-.52,7.28-1.47,6.72-2.85,11.44-9.5,11.44-17.24Z"/>
</svg>